HIERARCHY
ROOT Hips
{
	OFFSET 0.000000 0.000000 0.000000
	CHANNELS 6 Xposition Yposition Zposition Zrotation Yrotation Xrotation 
	JOINT LHipJoint
	{
		OFFSET 0.000000 0.000000 0.000000
		CHANNELS 3 Zrotation Yrotation Xrotation
		JOINT LeftUpLeg
		{
			OFFSET 1.363060 -1.794630 0.839290
			CHANNELS 3 Zrotation Yrotation Xrotation
			JOINT LeftLeg
			{
				OFFSET 2.448110 -6.726130 0.000000
				CHANNELS 3 Zrotation Yrotation Xrotation
				JOINT LeftFoot
				{
					OFFSET 2.562200 -7.039590 0.000000
					CHANNELS 3 Zrotation Yrotation Xrotation
					JOINT LeftToeBase
					{
						OFFSET 0.157640 -0.433110 2.322550
						CHANNELS 3 Zrotation Yrotation Xrotation
						End Site
						{
							OFFSET 0.000000 0.000000 0.000000
						}
					}
				}
			}
		}
	}
	JOINT RHipJoint
	{
		OFFSET 0.000000 0.000000 0.000000
		CHANNELS 3 Zrotation Yrotation Xrotation
		JOINT RightUpLeg
		{
			OFFSET -1.305520 -1.794630 0.839290
			CHANNELS 3 Zrotation Yrotation Xrotation
			JOINT RightLeg
			{
				OFFSET -2.542530 -6.985550 0.000000
				CHANNELS 3 Zrotation Yrotation Xrotation
				JOINT RightFoot
				{
					OFFSET -2.568260 -7.056230 0.000000
					CHANNELS 3 Zrotation Yrotation Xrotation
					JOINT RightToeBase
					{
						OFFSET -0.164730 -0.452590 2.363150
						CHANNELS 3 Zrotation Yrotation Xrotation
						End Site
						{
							OFFSET 0.000000 0.000000 0.000000
						}
					}
				}
			}
		}
	}
	JOINT LowerBack
	{
		OFFSET 0.000000 0.000000 0.000000
		CHANNELS 3 Zrotation Yrotation Xrotation
		JOINT Spine
		{
			OFFSET 0.028270 2.035590 -0.193380
			CHANNELS 3 Zrotation Yrotation Xrotation
			JOINT Spine1
			{
				OFFSET 0.056720 2.048850 -0.042750
				CHANNELS 3 Zrotation Yrotation Xrotation
				JOINT Neck
				{
					OFFSET 0.000000 0.000000 0.000000
					CHANNELS 3 Zrotation Yrotation Xrotation
					JOINT Neck1
					{
						OFFSET -0.054170 1.746240 0.172020
						CHANNELS 3 Zrotation Yrotation Xrotation
						JOINT Head
						{
							OFFSET 0.104070 1.761360 -0.123970
							CHANNELS 3 Zrotation Yrotation Xrotation
							End Site
							{
								OFFSET 0.000000 0.000000 0.000000
							}
						}
					}
				}
				JOINT LeftShoulder
				{
					OFFSET 0.000000 0.000000 0.000000
					CHANNELS 3 Zrotation Yrotation Xrotation
					JOINT LeftArm
					{
						OFFSET 3.362410 1.200890 -0.311210
						CHANNELS 3 Zrotation Yrotation Xrotation
						JOINT LeftForeArm
						{
							OFFSET 4.983000 -0.000000 -0.000000
							CHANNELS 3 Zrotation Yrotation Xrotation
							JOINT LeftHand
							{
								OFFSET 3.483560 -0.000000 -0.000000
								CHANNELS 3 Zrotation Yrotation Xrotation
								JOINT LeftFingerBase
								{
									OFFSET 0.000000 0.000000 0.000000
									CHANNELS 3 Zrotation Yrotation Xrotation
									JOINT LeftHandIndex1
									{
										OFFSET 0.715260 -0.000000 -0.000000
										CHANNELS 3 Zrotation Yrotation Xrotation
										End Site
										{
											OFFSET 0.000000 0.000000 0.000000
										}
									}
								}
								JOINT LThumb
								{
									OFFSET 0.000000 0.000000 0.000000
									CHANNELS 3 Zrotation Yrotation Xrotation
									End Site
									{
										OFFSET 0.000000 0.000000 0.000000
									}
								}
							}
						}
					}
				}
				JOINT RightShoulder
				{
					OFFSET 0.000000 0.000000 0.000000
					CHANNELS 3 Zrotation Yrotation Xrotation
					JOINT RightArm
					{
						OFFSET -3.136600 1.374050 -0.404650
						CHANNELS 3 Zrotation Yrotation Xrotation
						JOINT RightForeArm
						{
							OFFSET -5.241900 -0.000000 -0.000000
							CHANNELS 3 Zrotation Yrotation Xrotation
							JOINT RightHand
							{
								OFFSET -3.444170 -0.000000 -0.000000
								CHANNELS 3 Zrotation Yrotation Xrotation
								JOINT RightFingerBase
								{
									OFFSET 0.000000 0.000000 0.000000
									CHANNELS 3 Zrotation Yrotation Xrotation
									JOINT RightHandIndex1
									{
										OFFSET -0.622530 -0.000000 -0.000000
										CHANNELS 3 Zrotation Yrotation Xrotation
										End Site
										{
											OFFSET 0.000000 0.000000 0.000000
										}
									}
								}
								JOINT RThumb
								{
									OFFSET 0.000000 0.000000 0.000000
									CHANNELS 3 Zrotation Yrotation Xrotation
									End Site
									{
										OFFSET 0.000000 0.000000 0.000000
									}
								}
							}
						}
					}
				}
			}
		}
	}
}
MOTION
Frames: 6
Frame Time: 0.008333
2.010259 16.989324 15.843933 -176.326800 -0.774780 -175.295019 -2.790018 -4.515169 -1.668259 -12.482911 30.831932 -43.920758 12.608070 18.013842 60.087258 2.024652 2.123825 0.420408 0.014400 0.773500 2.125800 2.163513 4.398637 -2.332425 19.884886 -35.530809 -51.235992 -13.216689 -18.156560 61.334377 1.588923 -8.282334 6.750290 -0.136200 -2.378600 6.553100 1.206170 2.370491 8.354316 -0.057005 3.282166 -7.290209 0.304581 2.001058 -7.956227 -2.363107 0.021224 -18.205360 8.633720 -0.316709 8.656903 2.016700 0.249500 9.965600 -5.678231 -1.779616 -1.019040 12.656716 -6.228831 31.257048 11.683576 -11.477847 -6.172030 -23.997603 -1.369670 -13.634880 34.744151 -5.309006 -13.348900 -7.125000 0.000000 0.000000 21.247100 14.899700 -16.246100 10.233830 3.936346 0.076530 -10.527746 -4.396650 33.794804 -6.182418 12.069398 -6.378709 21.126700 -7.960345 -7.300384 -40.966580 18.706214 -37.537000 7.125000 0.000000 0.000000 -17.636600 12.417700 -21.955700 
2.012101 16.990904 15.840379 -176.349949 -0.748132 -175.296506 -2.798528 -4.509333 -1.660187 -12.492230 30.858420 -43.913068 12.602365 18.011908 60.067519 2.029147 2.118647 0.435004 0.013800 0.757500 2.081900 2.156479 4.393244 -2.337463 19.833366 -35.506199 -51.195434 -13.218052 -18.161618 61.349519 1.496861 -8.126905 6.818569 -0.151500 -2.508500 6.913300 1.227755 2.374023 8.354861 -0.055539 3.288491 -7.306935 0.283140 2.008250 -7.975746 -2.371583 0.063065 -18.202301 8.659674 -0.254550 8.653130 2.035900 0.280500 9.957800 -5.684268 -1.746959 -1.041524 12.671752 -6.255406 31.160403 11.703679 -11.479048 -6.168572 -24.023522 -1.399840 -13.659834 34.782417 -5.279015 -13.324300 -7.125000 0.000000 0.000000 21.300300 14.940200 -16.273300 10.222300 3.919266 0.070517 -10.558204 -4.372802 33.758992 -6.191076 12.052783 -6.376842 21.199714 -7.910958 -7.406142 -41.027343 18.670711 -37.623600 7.125000 0.000000 0.000000 -17.714900 12.445600 -22.068700 
2.014471 16.992088 15.836167 -176.345394 -0.734311 -175.310037 -2.805135 -4.500414 -1.654350 -12.460823 30.858710 -43.870055 12.595897 18.011710 60.043869 2.017090 2.141317 0.450516 0.013400 0.748200 2.056300 2.157577 4.387385 -2.337009 19.796767 -35.495784 -51.148514 -13.219461 -18.166899 61.355598 1.452887 -8.053901 6.895074 -0.154700 -2.534400 6.984900 1.276796 2.381424 8.360515 -0.055210 3.306524 -7.318600 0.246059 2.016875 -7.979919 -2.342015 0.080822 -18.203604 8.667344 -0.236723 8.638235 2.029100 0.292700 9.938700 -5.684044 -1.725805 -1.049897 12.696730 -6.292920 31.084601 11.725811 -11.477482 -6.163574 -24.009586 -1.467260 -13.640413 34.779889 -5.173989 -13.087900 -7.125000 0.000000 0.000000 21.351900 15.202600 -16.188400 10.217687 3.903654 0.063685 -10.577307 -4.356780 33.675410 -6.192217 12.034466 -6.369561 21.215040 -7.881565 -7.468897 -40.999038 18.652800 -37.578900 7.125000 0.000000 0.000000 -17.709500 12.403500 -22.051600 
2.016577 16.995116 15.832481 -176.352204 -0.734669 -175.309260 -2.810664 -4.496126 -1.650768 -12.452994 30.865660 -43.852213 12.588392 18.009377 60.017148 2.029267 2.122561 0.481446 0.015000 0.789600 2.170200 2.155904 4.382002 -2.338110 19.751852 -35.478384 -51.105865 -13.217328 -18.169606 61.352196 1.385533 -7.942131 6.991813 -0.160600 -2.582100 7.117300 1.317972 2.382023 8.359494 -0.055392 3.311271 -7.329114 0.218187 2.019680 -7.993630 -2.340276 0.092264 -18.188046 8.671740 -0.218962 8.613743 2.029800 0.301300 9.907100 -5.681222 -1.712954 -1.058991 12.714417 -6.324493 31.048353 11.742241 -11.477851 -6.156511 -24.014403 -1.499447 -13.656869 34.791215 -5.136111 -13.018200 -7.125000 0.000000 0.000000 21.382500 15.284000 -16.174700 10.206073 3.893277 0.072374 -10.601490 -4.331561 33.577027 -6.212943 12.029377 -6.375131 21.175259 -7.787783 -7.612961 -40.860374 18.603989 -37.293400 7.125000 0.000000 0.000000 -17.625100 12.173100 -21.883600 
2.017762 16.996827 15.828400 -176.361920 -0.731730 -175.301887 -2.819014 -4.494075 -1.647847 -12.447272 30.864150 -43.835738 12.581303 18.008854 59.995276 2.038812 2.106527 0.516005 0.015300 0.799700 2.197900 2.150174 4.374083 -2.336663 19.727355 -35.483563 -51.085295 -13.221067 -18.170713 61.351393 1.388104 -7.948131 7.040957 -0.146700 -2.468600 6.802600 1.362827 2.382697 8.349228 -0.051363 3.313149 -7.336109 0.186602 2.020879 -8.010137 -2.365240 0.072242 -18.166379 8.664006 -0.237936 8.599250 2.016100 0.290100 9.887900 -5.684338 -1.711177 -1.064586 12.714129 -6.319985 31.009737 11.747423 -11.474009 -6.167663 -24.036192 -1.549936 -13.641346 34.831985 -5.069110 -12.898300 -7.125000 0.000000 0.000000 21.460300 15.430600 -16.169700 10.190181 3.894910 0.071819 -10.639944 -4.290235 33.446034 -6.212831 12.010526 -6.370200 21.204449 -7.781635 -7.603304 -40.873603 18.567110 -37.300500 7.125000 0.000000 0.000000 -17.662200 12.151100 -21.928800 
2.019473 16.998802 15.824582 -176.370139 -0.730041 -175.298777 -2.825792 -4.490747 -1.644538 -12.439102 30.865638 -43.818270 12.574700 18.007946 59.974252 2.040846 2.103523 0.546042 0.015700 0.808100 2.220800 2.145589 4.367489 -2.336383 19.697930 -35.480987 -51.058848 -13.222207 -18.172506 61.352527 1.345296 -7.877260 7.111428 -0.147000 -2.471100 6.809400 1.407097 2.382764 8.344437 -0.048881 3.316020 -7.344347 0.154888 2.022360 -8.023869 -2.378705 0.065002 -18.155715 8.662631 -0.242030 8.584921 2.008500 0.287400 9.870100 -5.686742 -1.704061 -1.070682 12.721291 -6.327892 30.965248 11.757493 -11.470935 -6.172513 -24.039627 -1.608113 -13.659322 34.847090 -5.005937 -12.765700 -7.125000 0.000000 0.000000 21.510300 15.582700 -16.136800 10.177062 3.891676 0.072107 -10.672041 -4.256215 33.337859 -6.216585 11.993888 -6.365222 21.211563 -7.755786 -7.638262 -40.837709 18.535141 -37.227100 7.125000 0.000000 0.000000 -17.656200 12.079500 -21.903900 
